<?xml version="1.0" standalone="no"?>
<!DOCTYPE svg PUBLIC "-//W3C//DTD SVG 20010904//EN"
 "http://www.w3.org/TR/2001/REC-SVG-20010904/DTD/svg10.dtd">
<svg version="1.0" xmlns="http://www.w3.org/2000/svg"
 width="580.000000pt" height="580.000000pt" viewBox="0 0 580.000000 580.000000"
 preserveAspectRatio="xMidYMid meet">

<g transform="translate(0.000000,580.000000) scale(0.100000,-0.100000)"
fill="#000000" stroke="none">
<path d="M5230 8283 c-183 -10 -433 -56 -642 -118 -777 -230 -1446 -829 -1766
-1581 -136 -318 -198 -582 -223 -951 -16 -222 11 -574 56 -756 5 -19 0 -27
-31 -43 -21 -10 -92 -50 -158 -88 -67 -38 -145 -82 -173 -98 -66 -37 -70 -44
-37 -61 25 -13 32 -12 98 26 126 71 321 168 323 160 81 -273 130 -400 227
-588 128 -248 270 -448 467 -658 l111 -118 -73 -67 c-40 -37 -142 -132 -226
-211 -140 -131 -153 -146 -153 -178 l0 -34 122 108 c67 59 133 119 147 132 14
13 51 44 81 69 30 26 76 66 103 90 29 27 52 40 60 35 6 -4 55 -42 108 -84 261
-207 544 -360 854 -462 201 -67 312 -94 465 -117 441 -65 874 -32 1273 97 188
60 267 92 422 170 375 189 664 424 930 754 312 387 509 837 587 1338 20 127
23 183 23 431 -1 266 -3 296 -29 449 -33 192 -77 362 -136 516 -23 61 -43 117
-46 125 -3 10 52 68 156 165 356 332 647 705 805 1031 72 148 108 234 102 240
-2 2 -15 -10 -28 -28 -43 -58 -214 -241 -325 -348 -182 -175 -377 -334 -594
-482 -131 -90 -310 -201 -315 -196 -2 2 -30 44 -63 93 -233 352 -557 653 -943
875 -462 265 -1016 394 -1559 363z m200 -222 c0 -26 -17 -36 -35 -21 -18 15
-8 40 16 40 12 0 19 -7 19 -19z m567 -263 c9 -10 28 -18 42 -19 22 -1 23 -2 6
-7 -42 -14 -65 -37 -66 -67 l-2 -30 -4 29 c-5 31 -16 45 -48 64 -13 7 -15 12
-6 12 25 0 51 32 52 64 l2 31 4 -30 c3 -16 12 -38 20 -47z m-739 -30 c18 -18
15 -36 -7 -48 -15 -7 -23 -6 -35 6 -12 12 -13 20 -6 35 12 22 30 25 48 7z
m316 -34 c9 -3 16 -16 16 -29 0 -25 -21 -38 -45 -29 -18 7 -20 50 -2 57 6 3
13 6 14 6 1 1 8 -2 17 -5z m-687 -205 c16 -16 5 -39 -18 -39 -12 0 -19 7 -19
18 0 31 17 41 37 21z m453 -18 c0 -27 -19 -36 -37 -18 -18 18 -9 37 18 37 12
0 19 -7 19 -19z m-382 -44 c4 -20 -25 -34 -40 -19 -15 15 -1 44 19 40 10 -2
19 -11 21 -21z m62 -32 c15 -18 5 -35 -21 -35 -12 0 -19 7 -19 18 0 33 20 42
40 17z m568 -58 c4 -20 -25 -34 -40 -19 -15 15 -1 44 19 40 10 -2 19 -11 21
-21z m-668 -46 c0 -27 -19 -36 -37 -18 -18 18 -9 37 18 37 12 0 19 -7 19 -19z
m-322 -16 c107 -22 185 -51 327 -120 228 -111 426 -249 671 -468 203 -180 441
-436 622 -668 l51 -66 70 -11 c96 -16 105 -15 139 13 17 14 33 25 36 25 8 0 8
-255 0 -263 -4 -4 -19 2 -33 12 -45 31 -94 54 -85 39 4 -7 40 -62 79 -123 116
-179 280 -492 329 -629 4 -13 10 -16 17 -9 11 11 80 252 167 583 l59 225 108
78 109 78 120 -3 120 -3 148 -400 c207 -559 217 -583 250 -621 l30 -34 -301 0
-302 0 33 41 c36 45 40 83 16 154 l-13 40 -175 0 -174 0 -13 -65 c-15 -71 -11
-100 17 -141 11 -14 17 -29 13 -33 -3 -3 -45 -6 -93 -6 l-87 0 34 -112 c108
-358 119 -639 31 -811 -31 -63 -103 -132 -161 -157 -66 -29 -206 -38 -315 -20
-149 24 -382 101 -382 126 0 12 6 12 38 -2 208 -89 445 -122 585 -80 97 28
169 108 219 242 19 52 22 79 22 229 0 190 -13 264 -82 470 l-37 110 -42 3
c-50 4 -54 14 -14 43 29 21 29 22 14 58 -28 67 -132 281 -137 281 -2 0 -2 -24
1 -53 4 -41 0 -64 -17 -105 -43 -99 -203 -214 -340 -243 -83 -18 -279 -6 -362
21 l-67 22 -45 -26 c-25 -15 -50 -35 -56 -46 -6 -11 -15 -20 -20 -20 -12 0
-13 80 -2 96 4 6 47 37 96 69 l88 58 50 -12 c145 -33 318 14 318 87 0 23 -36
66 -75 88 -11 7 -18 14 -15 16 3 3 76 52 163 108 l158 103 36 -34 36 -34 -20
35 c-113 195 -251 397 -276 404 -35 9 -139 7 -176 -4 -19 -5 -45 -19 -58 -32
-57 -54 -6 -117 139 -168 110 -39 218 -89 218 -100 0 -5 -32 -28 -70 -52 -39
-24 -120 -75 -181 -114 l-111 -71 -50 19 c-150 57 -216 107 -260 195 -28 57
-32 75 -32 147 0 100 24 157 99 232 74 74 140 97 277 98 96 0 106 2 94 16 -7
8 -42 51 -77 95 -113 143 -253 297 -410 450 -553 539 -1109 807 -1405 676
-102 -46 -187 -163 -214 -296 -17 -81 -14 -270 5 -380 46 -261 170 -589 339
-893 l46 -82 -27 -11 c-14 -5 -31 -8 -37 -6 -15 6 -121 213 -191 372 -170 385
-248 779 -201 1015 38 191 131 305 291 356 55 17 229 17 313 -1z m1422 -179
c0 -23 -30 -41 -48 -30 -23 15 -25 29 -7 48 12 12 21 13 36 6 10 -6 19 -17 19
-24z m-1637 -180 c9 -22 -19 -42 -37 -26 -19 15 -10 40 14 40 10 0 20 -6 23
-14z m277 -7 c0 -13 18 -31 45 -47 13 -7 15 -12 6 -12 -24 0 -51 -31 -52 -59
l-1 -26 -8 28 c-12 41 -29 57 -59 58 -21 1 -22 2 -6 6 26 7 55 33 55 50 0 7 5
13 10 13 6 0 10 -5 10 -11z m-177 -111 c6 -19 -3 -38 -18 -38 -18 0 -28 17
-21 35 7 18 33 20 39 3z m-823 -1125 c95 -164 184 -314 197 -333 l23 -35 0
264 c0 288 -2 301 -60 356 -17 16 -30 32 -30 37 0 4 70 8 156 8 l155 0 -25
-33 c-57 -74 -56 -72 -53 -511 3 -446 0 -423 70 -488 l29 -28 -229 0 -228 0
-92 153 c-50 83 -139 233 -197 332 l-106 179 0 -268 c0 -293 2 -305 60 -361
17 -16 30 -32 30 -37 0 -4 -74 -8 -165 -8 -91 0 -165 3 -165 6 0 3 13 16 29
30 16 13 37 41 47 61 18 35 19 65 17 441 -2 390 -3 404 -23 437 -12 19 -34 45
-51 59 -16 14 -29 27 -29 30 0 3 105 6 233 6 l232 0 175 -297z m1539 57 c48
-129 128 -345 177 -480 49 -134 99 -259 112 -278 42 -62 43 -62 -268 -62 -154
0 -280 3 -280 6 0 4 14 22 31 42 29 32 31 40 26 86 -3 28 -10 63 -16 79 l-11
27 -125 0 c-98 0 -125 -3 -119 -12 15 -25 101 -136 241 -310 l142 -177 -36
-22 -36 -23 -16 25 c-9 13 -51 67 -94 119 -42 52 -128 161 -189 243 -124 163
-123 163 -134 48 -5 -49 -3 -61 19 -93 14 -20 23 -39 19 -42 -9 -9 -310 -7
-316 2 -3 5 17 25 44 45 27 20 56 49 63 65 8 15 31 90 51 167 21 77 62 228 92
335 90 323 90 326 29 397 -19 23 -35 44 -35 47 0 4 122 5 271 4 l270 -3 88
-235z m1841 230 c0 -6 -11 -15 -25 -22 -19 -8 -28 -8 -40 2 -25 21 -17 30 25
30 22 0 40 -5 40 -10z m-1282 -817 l35 -26 -29 -24 c-44 -35 -54 -30 -54 27 0
28 3 50 7 50 3 0 22 -12 41 -27z m-1343 -317 c0 -22 -14 -29 -34 -17 -19 12
-6 43 16 39 10 -2 18 -12 18 -22z m2833 -159 c4 -20 -25 -34 -40 -19 -15 15
-1 44 19 40 10 -2 19 -11 21 -21z m363 -98 c10 -10 29 -20 42 -20 20 -2 20 -2
-3 -6 -35 -7 -60 -32 -61 -62 l-2 -26 -4 25 c-7 35 -32 60 -62 61 -26 2 -26 2
-2 6 26 5 59 39 62 63 1 10 3 9 6 -3 3 -11 13 -27 24 -38z m-2291 -104 c174
-140 199 -165 206 -201 12 -63 -53 -92 -132 -59 -48 20 -143 112 -226 219
l-69 89 43 28 c24 16 45 28 48 26 3 -1 61 -47 130 -102z m1975 55 c0 -18 -6
-26 -23 -28 -13 -2 -25 3 -28 12 -10 26 4 48 28 44 17 -2 23 -10 23 -28z
m-417 11 c8 -4 12 -19 10 -32 -2 -18 -9 -24 -28 -24 -19 0 -26 6 -28 24 -3 20
11 41 28 41 3 0 11 -4 18 -9z m826 -174 c9 -14 7 -21 -7 -32 -33 -24 -71 11
-46 42 15 18 39 13 53 -10z m-1036 -10 c4 -20 -25 -34 -40 -19 -15 15 -1 44
19 40 10 -2 19 -11 21 -21z m217 -47 c0 -18 -6 -26 -23 -28 -13 -2 -25 3 -28
12 -10 26 4 48 28 44 17 -2 23 -10 23 -28z m-2451 -2 c8 -14 7 -21 -6 -34 -30
-30 -75 9 -48 42 16 18 39 15 54 -8z m3114 -1 c4 -20 -25 -34 -40 -19 -15 15
-1 44 19 40 10 -2 19 -11 21 -21z m-3858 -151 c0 -20 -27 -39 -45 -32 -25 9
-30 37 -10 52 20 15 55 2 55 -20z m-322 -39 c4 -20 -25 -34 -40 -19 -15 15 -1
44 19 40 10 -2 19 -11 21 -21z m3929 -43 c7 -18 -14 -35 -34 -27 -7 3 -13 14
-13 24 0 24 38 26 47 3z m-631 -25 c8 -14 -21 -43 -35 -35 -6 4 -11 16 -11 27
0 21 34 27 46 8z m-2538 -38 c-2 -9 -11 -17 -21 -19 -21 -4 -35 27 -17 38 19
12 42 0 38 -19z m3235 -51 c12 -8 28 -18 37 -22 12 -5 11 -7 -4 -7 -30 -1 -56
-31 -57 -65 l-2 -31 -4 30 c-6 37 -29 65 -57 66 -18 1 -19 2 -3 6 30 8 57 41
58 71 l2 27 4 -30 c3 -16 14 -36 26 -45z m-3725 37 c4 -20 -25 -34 -40 -19
-15 15 -1 44 19 40 10 -2 19 -11 21 -21z m3870 -65 c3 -16 -2 -22 -17 -22 -26
0 -36 17 -20 36 16 19 33 13 37 -14z m-3743 -32 c0 -30 -35 -40 -55 -15 -10
12 -10 18 0 30 20 25 55 15 55 -15z m854 11 c13 -24 -9 -57 -33 -48 -23 9 -31
34 -16 52 17 20 37 19 49 -4z m1219 -22 c4 -19 -19 -31 -38 -19 -18 11 -4 42
17 38 10 -2 19 -10 21 -19z m-555 -193 c7 -17 -18 -40 -33 -31 -5 3 -10 15
-10 26 0 23 35 27 43 5z m-950 -10 c9 -22 -19 -42 -37 -26 -19 15 -10 40 14
40 10 0 20 -6 23 -14z m317 -65 c0 -26 -17 -36 -35 -21 -18 15 -8 40 16 40 12
0 19 -7 19 -19z m2120 -196 c13 -16 6 -35 -15 -35 -18 0 -28 17 -21 35 7 19
20 19 36 0z m-2361 -49 c9 -10 25 -22 36 -27 20 -8 20 -8 0 -8 -20 -1 -45 -29
-57 -66 -5 -17 -6 -16 -7 6 -1 28 -25 54 -56 62 -20 5 -20 5 0 6 26 1 55 34
56 64 1 20 2 20 6 2 3 -11 12 -28 22 -39z"/>
<path d="M7108 5518 l-54 -183 124 -3 c69 -1 127 0 130 2 4 5 -137 366 -143
366 -1 0 -27 -82 -57 -182z"/>
<path d="M4762 5658 c-6 -18 -29 -93 -52 -167 -23 -74 -44 -140 -47 -148 -4
-10 21 -13 127 -13 l131 0 -7 23 c-3 12 -15 40 -25 62 -10 22 -39 92 -64 155
-25 63 -48 116 -49 118 -2 2 -9 -12 -14 -30z"/>
</g>
</svg>
